<svg width="16" height="16" viewBox="0 0 16 16" fill="none" xmlns="http://www.w3.org/2000/svg">
<path d="M1.33334 4.00001C1.33334 3.64638 1.47381 3.30724 1.72386 3.0572C1.97391 2.80715 2.31305 2.66667 2.66667 2.66667H13.3333C13.687 2.66667 14.0261 2.80715 14.2761 3.0572C14.5262 3.30724 14.6667 3.64638 14.6667 4.00001V12C14.6667 12.3536 14.5262 12.6928 14.2761 12.9428C14.0261 13.1929 13.687 13.3333 13.3333 13.3333H2.66667C2.31305 13.3333 1.97391 13.1929 1.72386 12.9428C1.47381 12.6928 1.33334 12.3536 1.33334 12V4.00001ZM3.67934 4.00001L8 7.78067L12.3207 4.00001H3.68H3.67934ZM13.3333 4.886L8.43934 9.16867C8.31777 9.27519 8.16164 9.33391 8 9.33391C7.83837 9.33391 7.68224 9.27519 7.56067 9.16867L2.66667 4.886V12H13.3333V4.886Z" fill="#575954"/>
</svg>
