<svg width="16" height="16" viewBox="0 0 16 16" fill="none" xmlns="http://www.w3.org/2000/svg">
<path d="M11.3333 10H12.6667V11.3333H11.3333V10ZM11.3333 7.33333H12.6667V8.66666H11.3333V7.33333ZM11.3333 4.66666H12.6667V6H11.3333V4.66666ZM9.16 4.66666L10 5.22666V4.66666H9.16Z" fill="#575954"/>
<path d="M6.66666 2V3.00667L8 3.89333V3.33333H14V12.6667H11.3333V14H15.3333V2H6.66666Z" fill="#575954"/>
<path d="M5.44666 3.8L10 6.83334V14H0.666664V6.98667L5.44666 3.8ZM6.66666 12.6667H8.66666V7.44L5.44666 5.39334L2 7.58667V12.6667H4V8.66667H6.66666V12.6667Z" fill="#575954"/>
<path opacity="0.3" d="M6.66667 12.6667H8.66667V7.44L5.44667 5.39333L2 7.58667V12.6667H4V8.66667H6.66667V12.6667Z" fill="#575954"/>
</svg>
